<?xml version='1.0' encoding='utf-8'?>
<svg xmlns="http://www.w3.org/2000/svg" enable-background="new 0 0 1000 1000" version="1.1" viewBox="0 0 1e3 1e3"> <style type="text/css">.st0{fill:#413633;} .st1{fill:#EB6B73;} .st2{fill:#F5E5D4;} .st3{fill:#9E2D29;} .st4{fill:#F7E7E7;}</style> <path class="st0" d="m941.98 571.98c-8.37 26.46-21.52 50.41-40.57 70.93-8.69 9.36-17.96 17.98-28.26 25.52-29.86 21.85-63.68 33.77-99.82 39.9-9.31 1.58-18.63 3.08-27.95 4.64-4.09 0.69-3.06 4-2.75 6.34 2.32 17.52 5.23 35 4.3 52.75-1.31 24.83-6.1 48.72-16.57 71.67-16.9 37.02-44.56 63.49-78.14 85.03-25.06 16.07-52.32 26.66-80.81 34.38-18.3 4.96-36.95 8.19-55.85 10.19-24.1 2.55-48.22 1.97-72.27 0.77-15.56-0.78-31.08-3.38-46.46-6.5-15.27-3.1-30.21-7.06-44.83-12.39-10.73-3.91-21.08-8.58-31.28-13.77-12.25-6.23-24.06-13.07-35.02-21.32-29.27-22.04-52.44-48.8-64.97-83.86-4.69-13.12-7.44-26.63-8.97-40.4-1.24-11.18-0.88-22.41-0.9-33.65-0.02-12.14 0.93-24.13 2.9-36.08 0.46-2.82 0.7-5.08-3.88-5.48-10.21-0.89-20.43-2.33-30.46-4.44-50.61-10.65-96.02-30.5-127.23-74.32-15.76-22.14-24.85-47.05-30.32-73.62-4.62-22.44-5.19-45.09-4.08-67.64 0.97-19.74 3.4-39.48 7.6-58.99 4.17-19.34 9.66-38.26 16.17-56.85 19.97-57.02 52-106.65 93.15-150.7 31.88-34.12 68.02-63.04 107.94-86.88 42.17-25.18 87.25-44 135.43-54.66 23.86-5.28 47.94-9.03 72.33-11.29 20.84-1.93 41.62-2.65 62.42-0.86 21.04 1.81 42.02 4.04 62.92 7.52 21.07 3.51 41.73 8.39 61.99 14.65 44.59 13.78 86.06 34.37 124.84 60.36 23.36 15.66 45.41 32.97 65.3 52.83 29.8 29.76 55.39 62.77 75.69 99.81 14.91 27.2 26.41 55.72 34.65 85.59 5.37 19.46 9.37 39.25 11.86 59.24 0.14 1.06 9.24 56.72-8.1 111.58z"/> <path class="st1" d="m243.5 176.07c1.1-2.22 3.34-3.06 5.29-4.16 36.87-20.77 74.71-39.3 115.65-50.89 15.9-4.5 31.98-8.49 48.26-10.68 13.03-1.75 26.18-3.36 39.39-4.31 15.95-1.15 31.86-2.03 47.78-1.53 19.19 0.6 38.26 2.72 57.34 5.19 44.95 5.8 87.6 18.77 128.29 38.57 4.22 2.05 8.79 3.39 12.51 6.42-5.33 15.34-8.91 30.49-4.85 47.18 9.46 38.88 51.73 70.06 91.69 66.49l0.49 0.09 0.48-0.16c15.44-0.83 29.32-5.92 41.6-15.35 18.52 19.73 34.92 41.12 48.49 64.5 25.03 43.11 41.99 89.17 48.79 138.73 0.77 5.62 2.06 11.22 1.62 16.97-22.26 4.37-40.93 15.31-56.81 31.25-10.11 10.15-17.88 21.79-20.77 36.03-5.63 27.79 4.79 49.41 26.26 66.59 4.88 3.9 10.48 6.84 14.9 11.35-0.26 0.74-0.53 1.49-0.78 2.23-2.9 2.21-5.49 0.14-8.02-0.8-30.29-11.24-60.97-21.18-92.41-28.78-21.58-5.22-43.07-10.77-64.91-14.79-30.68-7.84-61.3-15.89-92.05-23.44-25.11-6.17-50.57-10.08-76.36-12.6-32.78-3.2-65.56-4.12-98.39-3.02-56.65 1.91-112.03 12.07-166.7 26.67-16.88 4.51-33.36 10.49-50.59 13.66-0.51 0.09-0.93 0.63-1.4 0.97-3.33-0.16-6.34 1.16-9.42 2.07-14.03 4.16-28.07 8.32-42.04 12.68-33.08 10.32-65.91 21.23-95.8 39.36-3.52 2.14-7.09 4.52-11.47 4.77l-0.3-0.32c-0.09-0.36-0.32-0.6-0.69-0.7l-1.71-2.81c10.3-10 17.91-21.52 20.23-36 0.2-0.33 0.23-0.68 0.1-1.05 0.7-4.98 0.75-9.96-0.08-14.93 0.26-3.23-0.42-6.26-1.94-9.11 0.07-1.67-0.23-3.23-1.35-4.55-0.41-3.01-1.26-5.87-3.14-8.33 0.05-0.31-0.03-0.57-0.24-0.81-0.81-3.09-2.03-5.95-4.38-8.22l-0.73-1.11c-0.47-1.73-1.25-3.27-2.71-4.39l-1.49-2.2c-0.29-4.96-4.71-6.56-7.64-9.38-0.74-0.71-3.07-2.97-3.49-3.38-7.68-8.88-17.42-15.02-27.44-20.79-0.03-26.43 4.3-52.22 11.51-77.58 1.26-0.33 2.7-0.38 3.76-1.05 13.85-8.75 22.41-20.82 23.28-37.61 0.47-9.09-2.15-17.64-4.72-26.19 3.76-13.26 11.5-24.6 17.77-36.63 3.04-5.83 5.65-11.99 10.15-16.98 6.87 2.96 12.66 8.3 20.42 9.29 1.71 1.28 3.67 1.75 5.76 1.81l2.26 0.42c0.98 0.97 2.19 1.02 3.45 0.83l3.41 0.27c1.74 1.16 3.66 1.05 5.6 0.76 0.83 0.03 1.65 0.07 2.48 0.08 1.08 0.01 2.16-0.01 3.24-0.03 16.64-0.39 32.28-4.96 46.48-13.58 29.76-18.05 49.44-43.47 54.72-78.51 3.04-20.22-1.19-39.66-8.63-58.48zm491.11 289.04c4.3-15.52 2.22-30.38-4.56-44.77-2.74-7.8-7.06-14.7-12.3-21.03-20.59-24.88-60.76-41.02-98.57-21.63-17.82 9.14-31.97 22.54-40.23 40.45-6.32 13.69-8.25 28.61-4.8 44.38 9.39 42.89 54.7 72.5 95.18 64.35 26.12-5.26 45.54-19.92 58.48-43.19 1.76-2.08 2.83-4.47 3.28-7.15 0.2-0.2 0.26-0.44 0.19-0.71 1.74-2.55 2.64-5.39 2.95-8.44l0.38-2.26zm-275.89-351.87c-2.16-0.43-4.17 0.3-6.13 0.97-27.76 9.47-49.55 26.15-63.14 52.61-6.3 12.27-9.34 25.38-8.38 39.12 1.64 23.34 9.62 43.75 27.73 59.72 12.52 11.05 27.03 18.07 42.48 23.53 10.28 3.63 21.04 2.79 31.45 1.21 50.55-7.65 87.08-46.42 82.46-99.66-4.81-55.39-60.23-82.16-96.81-79.38-0.69 0.05-1.38 0.08-2.08 0.12l-5.93 1.05-1.65 0.71zm-240.65 290.22c-20.63-1.17-38.12 5.77-53.25 18.78-19.89 17.11-31.19 38.66-30.78 65.21 0.18 11.7 4.53 22.76 10.63 32.72 16.21 26.44 39.58 41.3 71.08 40.72 20.03-0.37 37.74-8.21 53.22-20.83 42.85-34.92 37.64-88.06-3.06-120.87-13.34-10.77-29.88-17.45-47.84-15.73zm124.32-66.29c-19.78-2.23-39.09 18.13-38.36 37.23 0.69 18.17 14.63 38.61 36.47 38.33 21.15-0.28 38.96-17.71 39.13-38.69 0.18-22.89-20.14-38.94-37.24-36.87zm515.76 5.97c-9.82 0.02-26.07 7.86-33.67 15.96-7.58 8.08-6.74 17.92 2.68 23.67 13.73 8.39 38.01 7.19 49.04-9.54 5.42-8.22 6.13-23.63-8.63-28.55-3.3-1.1-6.55-1.86-9.42-1.54zm-386.02 2.21c-12.77-0.04-23.53 9.02-23.58 19.84-0.05 12.07 9.19 20.7 22.27 20.8 12.87 0.1 23.19-9.07 23.31-20.71 0.12-11.05-9.64-19.89-22-19.93zm169.68-195.73c0.09-9.77-7.2-17.62-16.33-17.59-9.05 0.03-17.19 7.97-17.39 16.98-0.21 8.99 7.66 16.91 17.06 17.15 9.1 0.24 16.57-7.18 16.66-16.54zm24.01 136.56c-0.09-7.91-5.58-13.61-13.05-13.55-7.12 0.06-12.92 6.01-12.86 13.21 0.07 7.92 5.87 13.55 13.81 13.4 7.03-0.14 12.19-5.7 12.1-13.06zm-277.33 181.25c-0.04-5.45-3.94-9.15-9.5-9.01-5.39 0.14-8.88 3.64-8.96 9.01-0.09 5.64 3.87 9.6 9.68 9.69 5.31 0.1 8.83-3.79 8.78-9.69zm389.34 93.41c-0.11-5.81-3.79-9.91-8.85-9.85-5.52 0.07-9.36 4.32-9.17 10.18 0.16 5.17 3.98 8.74 9.29 8.71 5.42-0.04 8.84-3.58 8.73-9.04zm62.68-124.74c4.51-0.14 8.24-4.4 8.06-9.21-0.17-4.63-3.85-8.17-8.44-8.14-4.94 0.04-8.46 3.74-8.33 8.76 0.14 4.81 4.12 8.73 8.71 8.59z"/> <path class="st2" d="m475.13 950.76c-17.02-0.11-34.08-0.26-50.88-2.85-16.26-2.51-32.34-6.12-48.22-10.73-30.88-8.96-58.8-23.34-83.81-43.51-24.19-19.51-41.57-43.82-50.36-73.63-3.21-10.89-6.02-22.08-6.32-33.73-0.57-22.31 0.99-44.34 4.22-66.47 4.14-28.41 8.94-56.68 13.83-84.95 1.79-10.37 3.32-20.79 4.88-31.2 0.48-3.21 2.58-4.84 5.24-5.98 24.97-10.73 50.42-20.15 76.64-27.41 22.29-6.18 44.95-10.7 67.87-13.63 15.14-1.93 30.39-2.98 45.66-3.96 18.62-1.19 37.18-1.89 55.73-0.71 23.2 1.48 46.35 3.46 69.34 7.59 16.02 2.88 32.07 5.73 47.75 9.89 25.03 6.64 49.53 15.05 73.15 25.86 3.66 1.67 4.36 4.6 4.79 7.55 3.22 21.72 6.84 43.4 9.06 65.23 1.65 16.23 3.66 32.44 5.15 48.7 1.61 17.51 3.16 35 3.22 52.56 0.19 51.03-21.27 91.58-60.66 123.1-33.08 26.47-71.28 41.81-112.27 50.96-24.37 5.44-49.06 7.49-74.01 7.32zm151.64-199.97c5.64-6.32 9.42-13.61 11.2-21.89 3.45-16.05 3.13-31.79-5.04-46.53-8.57-15.47-25.47-23.65-40.65-19.42-20.29 5.65-30.45 21.84-32.23 40.63-2.09 22.06 3.86 41.6 23.28 54.98-4.74 5.92-7.35 12.82-9.08 20.08-6.78 28.51 16.75 53.91 45.66 49.35 28.49-4.49 43.63-34.14 29.88-58.55-5.2-9.25-13.56-14.64-23.02-18.65zm-252.37 7.54c12.09-9.75 18.24-22.25 20.21-37.81 2.06-16.31-1.07-30.77-10.83-43.63-8.43-11.1-20.48-15.84-33.94-13.89-16.87 2.45-27.35 14.17-31.78 29.62-5.86 20.48-3.72 40.58 9.73 58.3-5.64 4.97-11.84 9.29-15.73 16.1-7.37 12.88-9.87 25.98-1.88 39.35 7.84 13.1 19.57 19.78 35.05 19.48 23.15-0.45 42.3-18.17 41.16-41.75-0.51-10.56-3.47-19.28-11.99-25.77zm76.95-19.31c0-1.52 0.11-3.05-0.02-4.56-0.37-4.45-2.37-8.09-7.15-7.98-4.82 0.11-6.38 3.87-6.56 8.33-0.18 4.18 0.37 8.24 1.19 12.33 3.79 18.96 23.88 35.76 44.88 30.63 22-5.38 32.07-23.02 31.66-42.58-0.13-6.1-2.76-8.85-7.43-8.58-5.74 0.33-6.34 4.42-6.36 8.87-0.03 5.49-0.27 10.99-2.9 15.94-5.77 10.89-18.27 17.08-29.15 13.79-10.13-3.06-19.92-16.23-18.16-26.19z"/> <path class="st3" d="m723.78 576.21c21.85 4.01 43.34 9.57 64.91 14.79 31.44 7.61 62.12 17.54 92.41 28.78 2.52 0.94 5.11 3.01 8.02 0.8 0.82 2.51-1.03 3.83-2.38 5.38-20.28 23.31-45.09 39.7-74.39 49.6-22.06 7.46-44.49 12.94-67.61 15.8-4.34 0.54-5.18-0.95-5.6-4.7-3.09-27.53-6.67-54.99-10.8-82.4-1.41-9.36-3.67-18.6-4.56-28.05z"/> <path class="st4" d="m147.68 326.67-2.48-0.08c-1.74-1.18-3.44-2.7-5.6-0.76l-3.41-0.27c-0.73-2.02-1.88-2.3-3.45-0.83l-2.26-0.42c-1.34-2.44-3-3.87-5.76-1.81-7.77-0.99-13.55-6.34-20.42-9.29 4.53-8.8 10.61-16.58 16.65-24.31 33.92-43.44 73.92-80.41 119.54-111.3 0.92-0.63 2.01-1.01 3.02-1.51 7.44 18.82 11.68 38.26 8.63 58.47-5.28 35.04-24.96 60.46-54.72 78.51-14.2 8.61-29.85 12.96-46.48 13.58-1.11-0.9-2.19-0.89-3.26 0.02z"/> <path class="st3" d="m79.55 637.33c4.38-0.24 7.94-2.63 11.47-4.77 29.89-18.12 62.73-29.03 95.8-39.36 13.97-4.36 28.01-8.52 42.04-12.68 3.07-0.91 6.09-2.23 9.42-2.07-0.66 13.37-5.34 25.97-7.62 39.05-3.12 17.96-4.24 36.11-6.65 54.12-1.03 7.7-2.4 15.36-3.74 23.02-0.59 3.37-2.79 4.77-6.19 4.38-24.37-2.82-48.47-6.91-71.29-16.37-22.48-9.32-43.21-21.36-59.67-39.75-1.49-1.66-3.65-2.91-3.57-5.57z"/> <path class="st4" d="m827.41 252.93c-12.28 9.43-26.15 14.51-41.6 15.35-0.34-0.28-0.67-0.26-0.97 0.07-39.96 3.57-82.23-27.61-91.69-66.49-4.06-16.69-0.48-31.84 4.85-47.18 14.85 6.47 28.44 15.16 42.1 23.74 32.75 20.55 61.64 45.64 87.31 74.51z"/> <path class="st4" d="m889.9 618.35c-4.42-4.5-10.03-7.44-14.9-11.35-21.47-17.19-31.89-38.8-26.26-66.59 2.89-14.25 10.66-25.88 20.77-36.03 15.88-15.94 34.55-26.88 56.81-31.25 2.02 12.02 1.72 24.14 1.25 36.23-1.48 38.52-11.14 74.43-34.54 105.83-0.89 1.19-1.55 2.64-3.13 3.16z"/> <path class="st4" d="m93.8 567.85c1.12 1.32 1.42 2.88 1.35 4.55-2.26 3.66-0.29 6.41 1.94 9.11 0.83 4.97 0.67 9.93 0.08 14.93-0.04 0.35-0.06 0.7-0.1 1.05-2.32 14.48-9.92 26-20.23 36-11.03-14.21-18.82-30.08-24.55-47.07-8.46-25.08-11.3-50.84-9.76-77.18 10.03 5.77 19.77 11.92 27.44 20.79 0.43 0.41 2.76 2.66 3.49 3.38 0.67 4.66 3.61 7.46 7.64 9.38l1.49 2.2c-1.58 2.99 0.04 4.02 2.71 4.39l0.73 1.11c-0.06 3.55 0.03 7.02 4.38 8.22 0.2 0.23 0.28 0.5 0.24 0.81 0.01 3.17-0.35 6.48 3.15 8.33z"/> <path class="st2" d="m76.37 366.81c2.57 8.55 5.2 17.1 4.72 26.19-0.87 16.79-9.43 28.87-23.28 37.61-1.05 0.67-2.5 0.71-3.76 1.05 1.35-9.7 4.96-18.78 8.03-27.96 4.2-12.49 8.58-24.96 14.29-36.89z"/> <path class="st3" d="m78.56 636.3c0.36 0.1 0.59 0.34 0.69 0.7-0.44-0.03-0.67-0.26-0.69-0.7z"/> <path class="st4" d="m468.39 111.36c36.53-3.4 92 23.99 96.81 79.38 4.62 53.24-31.91 92.01-82.46 99.66-10.41 1.58-21.17 2.42-31.45-1.21-15.44-5.46-29.95-12.48-42.48-23.53-18.11-15.98-26.09-36.38-27.73-59.72-0.96-13.73 2.07-26.85 8.38-39.12 13.59-26.46 35.39-43.13 63.14-52.61 1.96-0.67 3.96-1.39 6.13-0.97l1.65-0.71 5.93-1.05c0.73 0.6 1.42 0.54 2.08-0.12z"/> <path class="st4" d="m218.07 403.46c17.96-1.72 34.49 4.96 47.85 15.73 40.69 32.81 45.91 85.95 3.06 120.87-15.48 12.62-33.2 20.46-53.22 20.83-31.5 0.58-54.87-14.28-71.08-40.72-6.1-9.95-10.45-21.02-10.63-32.72-0.41-26.55 10.88-48.1 30.78-65.21 15.12-13.01 32.61-19.95 53.24-18.78z"/> <path class="st4" d="m727.81 483.66c-12.94 23.27-32.36 37.93-58.48 43.19-40.48 8.15-85.79-21.46-95.18-64.35-3.45-15.77-1.52-30.7 4.8-44.38 8.26-17.91 22.41-31.31 40.23-40.45 37.81-19.39 77.98-3.25 98.57 21.63 5.24 6.33 9.56 13.23 12.3 21.03 0 3.37-0.45 6.74 0.84 10.05 3.79 9.7 4.76 19.69 2.81 29.94-0.33 1.73-0.39 3.38 0.91 4.78l-0.38 2.26c-3.83 1.82-3.03 5.25-2.95 8.44 0.07 0.27 0.01 0.51-0.19 0.71-3.62 1.23-3.36 4.23-3.28 7.15z"/> <path class="st4" d="m342.39 337.17c17.1-2.07 37.42 13.99 37.24 36.87-0.17 20.98-17.98 38.41-39.13 38.69-21.84 0.29-35.77-20.16-36.47-38.33-0.73-19.11 18.58-39.47 38.36-37.23z"/> <path class="st2" d="m858.15 343.14c2.87-0.32 6.13 0.44 9.42 1.54 14.76 4.92 14.04 20.33 8.63 28.55-11.03 16.73-35.3 17.93-49.04 9.54-9.42-5.75-10.26-15.59-2.68-23.67 7.59-8.11 23.84-15.94 33.67-15.96z"/> <path class="st2" d="m472.13 345.35c12.36 0.04 22.12 8.88 22.01 19.93-0.12 11.64-10.45 20.81-23.31 20.71-13.08-0.1-22.31-8.73-22.27-20.8 0.04-10.82 10.8-19.87 23.57-19.84z"/> <path class="st2" d="m641.81 149.62c-0.09 9.36-7.56 16.78-16.67 16.54-9.39-0.24-17.26-8.16-17.06-17.15 0.21-9.01 8.34-16.95 17.39-16.98 9.14-0.03 16.43 7.82 16.34 17.59z"/> <path class="st2" d="m665.82 286.18c0.08 7.36-5.07 12.91-12.1 13.05-7.94 0.16-13.74-5.47-13.81-13.4-0.06-7.19 5.74-13.15 12.86-13.21 7.48-0.05 12.97 5.65 13.05 13.56z"/> <path class="st2" d="m388.49 467.43c0.05 5.9-3.47 9.78-8.78 9.7-5.81-0.09-9.77-4.05-9.68-9.69 0.08-5.37 3.57-8.87 8.96-9.01 5.56-0.14 9.46 3.55 9.5 9z"/> <path class="st2" d="m533.82 418.41c0.05 5.9-3.47 9.78-8.78 9.7-5.81-0.09-9.77-4.05-9.68-9.69 0.08-5.37 3.57-8.87 8.96-9.01 5.57-0.14 9.46 3.55 9.5 9z"/> <path class="st2" d="m582.31 311.38c0.05 5.9-3.47 9.78-8.78 9.7-5.81-0.09-9.77-4.05-9.68-9.69 0.08-5.37 3.57-8.87 8.96-9.01 5.56-0.14 9.46 3.55 9.5 9z"/> <path class="st2" d="m145.41 578.09c0.05 5.9-3.47 9.78-8.78 9.7-5.81-0.09-9.77-4.05-9.68-9.69 0.08-5.37 3.57-8.87 8.96-9.01 5.57-0.14 9.46 3.55 9.5 9z"/> <path class="st2" d="m97.46 476.79c0.05 5.9-3.47 9.78-8.78 9.7-5.81-0.09-9.77-4.05-9.68-9.69 0.08-5.37 3.57-8.87 8.96-9.01 5.56-0.15 9.46 3.54 9.5 9z"/> <path class="st2" d="m457.78 499.66c0.05 5.9-3.47 9.78-8.78 9.7-5.81-0.09-9.77-4.05-9.68-9.69 0.08-5.37 3.57-8.87 8.96-9.01 5.57-0.15 9.46 3.54 9.5 9z"/> <path class="st2" d="m573.08 510.37c0.05 5.9-3.47 9.78-8.78 9.7-5.81-0.09-9.77-4.05-9.68-9.69 0.08-5.37 3.57-8.87 8.96-9.01 5.56-0.14 9.46 3.55 9.5 9z"/> <path class="st2" d="m800.18 490.3c0.05 5.9-3.47 9.78-8.78 9.7-5.81-0.09-9.77-4.05-9.68-9.69 0.08-5.37 3.57-8.87 8.96-9.01 5.57-0.15 9.46 3.55 9.5 9z"/> <path class="st2" d="m337.29 251.02c0.05 5.9-3.47 9.78-8.78 9.7-5.81-0.09-9.77-4.05-9.68-9.69 0.08-5.37 3.57-8.87 8.96-9.01 5.56-0.14 9.45 3.55 9.5 9z"/> <path class="st2" d="m262.35 336.64c0.05 5.9-3.47 9.78-8.78 9.7-5.81-0.09-9.77-4.05-9.68-9.69 0.08-5.37 3.57-8.87 8.96-9.01 5.57-0.14 9.46 3.55 9.5 9z"/> <path class="st2" d="m359.46 165.82c0.05 5.9-3.47 9.78-8.78 9.7-5.81-0.09-9.77-4.05-9.68-9.69 0.08-5.37 3.57-8.87 8.96-9.01 5.56-0.14 9.46 3.55 9.5 9z"/> <path class="st2" d="m151.63 375.96c0.05 5.9-3.47 9.78-8.78 9.7-5.81-0.09-9.77-4.05-9.68-9.69 0.08-5.37 3.57-8.87 8.96-9.01 5.56-0.15 9.46 3.54 9.5 9z"/> <path class="st2" d="m777.83 560.84c0.1 5.46-3.31 9-8.73 9.03-5.32 0.03-9.13-3.54-9.29-8.71-0.19-5.86 3.65-10.11 9.17-10.18 5.06-0.05 8.74 4.05 8.85 9.86z"/> <path class="st2" d="m768.82 326.73c0.1 5.46-3.31 9-8.73 9.03-5.31 0.03-9.13-3.54-9.29-8.71-0.19-5.86 3.65-10.11 9.17-10.18 5.05-0.05 8.73 4.05 8.85 9.86z"/> <path class="st2" d="m840.51 436.1c-4.59 0.14-8.57-3.79-8.7-8.59-0.14-5.02 3.38-8.72 8.33-8.76 4.58-0.04 8.26 3.51 8.44 8.14 0.17 4.81-3.56 9.08-8.07 9.21z"/> <path class="st2" d="m734.61 465.11c-1.3-1.4-1.24-3.05-0.91-4.78 1.95-10.25 0.98-20.24-2.81-29.94-1.29-3.31-0.84-6.68-0.84-10.05 6.78 14.39 8.87 29.25 4.56 44.77z"/> <path class="st2" d="m81.12 542.8c-4.03-1.92-6.97-4.72-7.64-9.38 2.96 2.79 7.35 4.41 7.64 9.38z"/> <path class="st2" d="m90.43 558.71c-4.34-1.2-4.44-4.67-4.38-8.22 2.35 2.27 3.57 5.14 4.38 8.22z"/> <path class="st2" d="m97.09 581.51c-2.24-2.7-4.2-5.45-1.94-9.11 1.52 2.85 2.2 5.88 1.94 9.11z"/> <path class="st2" d="m731.28 475.8c-0.08-3.18-0.88-6.62 2.95-8.44-0.31 3.05-1.21 5.89-2.95 8.44z"/> <path class="st2" d="m93.8 567.85c-3.5-1.85-3.14-5.16-3.14-8.33 1.88 2.46 2.72 5.32 3.14 8.33z"/> <path class="st2" d="m124.71 322.49c2.76-2.06 4.42-0.63 5.76 1.81-2.09-0.06-4.05-0.53-5.76-1.81z"/> <path class="st2" d="m727.81 483.66c-0.08-2.92-0.34-5.92 3.28-7.15-0.45 2.68-1.52 5.08-3.28 7.15z"/> <path class="st2" d="m139.6 325.82c2.17-1.93 3.86-0.41 5.6 0.76-1.94 0.3-3.86 0.4-5.6-0.76z"/> <path class="st2" d="m85.32 549.39c-2.67-0.37-4.29-1.4-2.71-4.39 1.46 1.12 2.24 2.65 2.71 4.39z"/> <path class="st2" d="m132.73 324.72c1.57-1.47 2.72-1.18 3.45 0.83-1.26 0.19-2.46 0.15-3.45-0.83z"/> <path class="st2" d="m147.68 326.67c1.07-0.9 2.15-0.91 3.24-0.03l-3.24 0.03z"/> <path class="st2" d="m468.39 111.36c-0.66 0.66-1.35 0.72-2.08 0.12l2.08-0.12z"/> <path class="st2" d="m784.84 268.34c0.3-0.33 0.63-0.35 0.97-0.07l-0.48 0.16-0.49-0.09z"/> <path class="st2" d="m460.38 112.53-1.65 0.71 1.65-0.71z"/> <path class="st2" d="m71.27 531.26-1.28-1.23 1.28 1.23z"/> <path class="st2" d="m97.08 597.49 0.1-1.05c0.13 0.37 0.09 0.72-0.1 1.05z"/> <path class="st0" d="m327.79 750.93c-13.46-17.72-15.59-37.82-9.73-58.3 4.42-15.46 14.9-27.17 31.78-29.62 13.45-1.95 25.51 2.79 33.94 13.89 9.76 12.86 12.9 27.33 10.83 43.63-1.97 15.55-8.12 28.06-20.21 37.81-6.03 2.21-11.84 5.57-18.31 5.78-11.47 0.36-20.87-4.49-28.3-13.19zm34.5-58.81c0.08-10.76-6.23-17.97-15.81-18.08-10.76-0.12-18.31 7.16-18.42 17.76-0.11 10.4 7.89 19.82 16.92 19.93 9.78 0.12 17.23-8.32 17.31-19.61z"/> <path class="st0" d="m583.33 758.55c-19.42-13.38-25.37-32.92-23.28-54.98 1.78-18.79 11.94-34.98 32.23-40.63 15.18-4.23 32.08 3.96 40.65 19.42 8.17 14.74 8.49 30.47 5.04 46.53-1.78 8.28-5.56 15.57-11.2 21.89-2.21 2.02-4.26 4.28-6.67 6.04-11.83 8.65-24.18 8.22-36.77 1.73zm22.25-66.49c-0.02-11.66-5.47-18.03-15.43-18.02-10.62 0.01-18.97 8.11-18.92 18.35 0.05 9.52 9.37 19.84 17.87 19.27 7.82-0.51 17.42-7.07 16.48-19.6z"/> <path class="st1" d="m583.33 758.55c12.59 6.49 24.94 6.92 36.77-1.73 2.41-1.76 4.45-4.01 6.67-6.04 9.46 4.01 17.81 9.41 23.02 18.64 13.76 24.41-1.39 54.06-29.88 58.55-28.91 4.56-52.44-20.84-45.66-49.35 1.73-7.25 4.34-14.15 9.08-20.07z"/> <path class="st1" d="m327.79 750.93c7.43 8.7 16.83 13.56 28.3 13.18 6.47-0.21 12.28-3.57 18.31-5.78 8.52 6.49 11.48 15.21 12 25.77 1.15 23.58-18 41.3-41.16 41.75-15.48 0.3-27.22-6.37-35.05-19.48-7.99-13.37-5.49-26.46 1.88-39.35 3.89-6.8 10.08-11.12 15.72-16.09z"/> <path class="st0" d="m451.35 739.02c-1.76 9.96 8.03 23.13 18.16 26.18 10.88 3.28 23.39-2.91 29.15-13.79 2.62-4.95 2.87-10.45 2.9-15.94 0.02-4.46 0.61-8.55 6.36-8.87 4.68-0.27 7.31 2.48 7.43 8.58 0.41 19.56-9.66 37.21-31.66 42.58-21 5.13-41.1-11.66-44.88-30.63-0.82-4.09-1.36-8.15-1.19-12.33 0.19-4.46 1.75-8.22 6.56-8.33 4.78-0.11 6.78 3.53 7.15 7.98 0.13 1.52 0.03 3.05 0.02 4.57z"/> <path class="st4" d="m362.29 692.12c-0.08 11.29-7.53 19.73-17.31 19.61-9.03-0.11-17.03-9.53-16.92-19.93 0.11-10.59 7.66-17.87 18.42-17.76 9.58 0.11 15.88 7.32 15.81 18.08z"/> <path class="st4" d="m605.58 692.06c0.94 12.53-8.66 19.09-16.48 19.61-8.5 0.57-17.83-9.75-17.87-19.27-0.05-10.24 8.3-18.34 18.92-18.35 9.95-0.02 15.4 6.35 15.43 18.01z"/> </svg>